<svg width="12" height="12" fill="none" xmlns="http://www.w3.org/2000/svg"><g clip-path="url(#clip0_471_2618)"><path d="M10.587 4.82c-.176-.185-.36-.375-.428-.543-.064-.153-.068-.407-.072-.653-.006-.458-.014-.976-.374-1.337-.361-.36-.88-.367-1.337-.374-.246-.004-.5-.008-.653-.072-.167-.069-.358-.251-.543-.428C6.857 1.102 6.49.75 6 .75s-.856.352-1.18.663c-.185.177-.375.36-.543.428-.152.064-.407.068-.653.072-.458.007-.976.014-1.337.375-.36.36-.365.878-.374 1.336-.004.246-.008.5-.072.653-.069.167-.251.358-.428.543C1.102 5.143.75 5.51.75 6s.352.856.663 1.18c.177.185.36.375.428.543.064.153.068.407.072.653.007.458.014.976.375 1.337.36.36.878.368 1.336.375.246.003.5.007.653.07.167.07.358.253.543.43.323.31.69.662 1.18.662s.856-.352 1.18-.663c.185-.176.375-.36.543-.428.153-.064.407-.068.653-.072.458-.006.976-.014 1.337-.374.36-.361.368-.88.375-1.337.003-.246.007-.5.07-.653.07-.167.253-.358.43-.543.31-.323.662-.69.662-1.18s-.352-.856-.663-1.18zm-2.447.32L5.515 7.765a.375.375 0 01-.53 0L3.86 6.64a.375.375 0 11.53-.53l.86.86 2.36-2.36a.375.375 0 11.53.53z" fill="#306BCD"/></g><defs><clipPath id="clip0_471_2618"><path fill="#fff" d="M0 0h12v12H0z"/></clipPath></defs></svg>