<svg width="24" height="24" fill="none" xmlns="http://www.w3.org/2000/svg"><g opacity=".4" clip-path="url(#clip0_471_3070)"><path d="M21.739 16.414A5.275 5.275 0 0116.5 21C9.056 21 3 14.944 3 7.5a5.274 5.274 0 014.586-5.239 1.5 1.5 0 011.558.893l1.98 4.42v.011A1.5 1.5 0 0111.005 9a1.048 1.048 0 01-.053.072L9 11.386c.702 1.427 2.195 2.906 3.64 3.61l2.282-1.941a1.5 1.5 0 011.492-.184l.013.006 4.416 1.979a1.5 1.5 0 01.896 1.558z" fill="#05060E"/></g><defs><clipPath id="clip0_471_3070"><path fill="#fff" d="M0 0h24v24H0z"/></clipPath></defs></svg>