<svg width="24" height="24" fill="none" xmlns="http://www.w3.org/2000/svg"><path d="M20.712 13.56a8.971 8.971 0 00.147-1.604 8.815 8.815 0 00-2.595-6.26 8.808 8.808 0 00-2.814-1.897 8.795 8.795 0 00-3.445-.696c-.563 0-1.128.054-1.676.16a5.276 5.276 0 00-2.463-.615A5.21 5.21 0 004.16 4.184a5.209 5.209 0 00-1.535 3.705c0 .89.23 1.767.659 2.54a8.983 8.983 0 00-.134 1.527c0 1.195.234 2.355.696 3.445a8.807 8.807 0 001.896 2.815 8.807 8.807 0 002.815 1.896 8.796 8.796 0 004.997.558c.785.442 1.671.68 2.578.68a5.2 5.2 0 003.705-1.536 5.2 5.2 0 001.536-3.705 5.214 5.214 0 00-.661-2.548zm-8.672 3.82c-3.145 0-4.552-1.547-4.552-2.705 0-.595.439-1.01 1.043-1.01 1.346 0 .999 1.934 3.509 1.934 1.287 0 1.997-.699 1.997-1.414 0-.428-.211-.907-1.06-1.115l-2.798-.699c-2.252-.564-2.663-1.783-2.663-2.927 0-2.377 2.239-3.27 4.341-3.27 1.936 0 4.219 1.072 4.219 2.497 0 .611-.53.965-1.135.965-1.148 0-.937-1.589-3.25-1.589-1.149 0-1.784.52-1.784 1.263 0 .743.907.98 1.695 1.16l2.072.46c2.268.506 2.842 1.83 2.842 3.077 0 1.93-1.483 3.373-4.476 3.373z" fill="#A3A3A3"/></svg>