<svg width="166" height="44" fill="none" xmlns="http://www.w3.org/2000/svg"><g clip-path="url(#clip0_471_3318)"><path d="M0 5.219h38.817V20.73l-3.9 3.896 3.9 3.86V44H0V5.22z" fill="#FE0116"/><path d="M13.738 5.219h12.128c0 1.787.179 3.538.573 5.218H14.203c-.322-1.68-.465-3.431-.465-5.218z" fill="#9C000D"/><path fill-rule="evenodd" clip-rule="evenodd" d="M31.053 20.73H15.527v7.757h15.527v7.756H7.762V12.975h23.291v7.756z" fill="#FEFEFE"/><path d="M13.738 5.219c0-1.788.143-3.503.465-5.219H26.44c-.358 1.716-.573 3.467-.573 5.219H13.738zm119.777 16.227v-2.145h-2.826V16.3h-2.397v3.003h-1.324v2.144h1.324v4.647c0 3.002.751 3.931 3.148 3.931.752 0 2.147-.286 2.147-.286l-.107-2.037s-1.109.072-1.682.072c-1.037 0-1.073-.537-1.073-2.002v-4.325h2.79zm-14.274 8.328v-7.97s1.431-.465 2.361-.465c1.467 0 1.717 1.036 1.717 3.002v5.433h2.397v-5.468c0-3.503-.751-5.219-3.649-5.219-1.145 0-2.79.786-2.79.786v-.536h-2.397v10.437h2.361zm-7.263-12.117h2.397V15.12h-2.397v2.537zm0 12.117h2.397V19.301h-2.397v10.473zm-5.008-4.646v2.395s-1.503.428-2.612.428c-.68 0-1.073-.464-1.073-1.358 0-.858.465-1.25 1.395-1.322l2.29-.143zm2.397-2.502c0-2.574-1.252-3.539-3.578-3.539-1.538 0-4.257.465-4.257.465l.071 2.037s2.505-.179 4.043-.179c.787 0 1.288.43 1.288 1.251v.644l-2.612.214c-2.254.179-3.506.93-3.506 3.181 0 2.073 1.038 3.36 3.041 3.36 1.61 0 3.399-.75 3.399-.75.644.464 1.181.75 2.79.75l.072-2.037c-.608-.107-.823-.322-.859-1.037v-4.36h.108zm-12.772 7.148h2.397V14.977h-2.397v14.797zm-6.297-8.507c1.252 0 2.04.787 2.04 3.146 0 2.502-.537 3.395-2.433 3.395-.68 0-1.682-.143-1.79-.143v-5.861s1.253-.537 2.183-.537zm-4.543 12.975h2.397V29.81c.107.036 1.073.179 1.931.179 3.22 0 4.687-1.216 4.687-5.576 0-3.932-1.288-5.362-4.007-5.362-1.18 0-2.611.822-2.611.822v-.572h-2.397v14.941zM70.8 29.774v-7.97s1.252-.465 2.183-.465c1.502 0 1.717.858 1.717 3.074v5.397h2.397v-5.469c0-.965-.072-2.359-.143-2.502.036-.035 1.252-.536 2.29-.536 1.68 0 1.717 1.108 1.717 3.932v4.54h2.397v-5.47c0-3.681-.787-5.218-3.65-5.218-1.252 0-2.718.536-3.649.894-.536-.537-1.287-.823-2.36-.894-.323 0-.716.072-1.074.143-.93.179-1.825.643-1.825.643v-.572h-2.36V29.74h2.36v.035zm-8.944-1.93c-1.86 0-2.29-1.072-2.29-3.36 0-2.252.502-3.252 2.29-3.252 1.682 0 2.254 1.036 2.254 3.252 0 2.216-.393 3.36-2.254 3.36zm0-8.757c-3.541 0-4.722 2.073-4.722 5.433 0 3.396 1.109 5.505 4.722 5.505 3.614 0 4.687-2.145 4.687-5.505s-1.216-5.433-4.687-5.433zm-5.867 8.185s-2.504.322-3.613.322c-2.755 0-3.256-1.358-3.256-5.04 0-3.86.644-5.075 3.184-5.075 1.252 0 3.72.321 3.72.321l.072-2.144s-2.29-.572-4.114-.572c-4.114 0-5.402 2.216-5.402 7.506 0 4.933 1.002 7.47 5.402 7.47 1.646 0 4.114-.536 4.114-.536l-.107-2.252z" fill="#05060E"/><path d="M156.913 19.302l2.969 5.254-2.969 5.218h2.54l1.967-3.503 2.004 3.503h2.54l-3.005-5.218L166 19.302h-2.54l-2.004 3.538-1.967-3.538h-2.576zm-5.331 8.542c-1.86 0-2.29-1.072-2.29-3.36 0-2.252.501-3.252 2.29-3.252 1.682 0 2.254 1.036 2.254 3.252.036 2.216-.394 3.36-2.254 3.36zm0-8.757c-3.542 0-4.722 2.073-4.722 5.433 0 3.396 1.109 5.505 4.722 5.505 3.613 0 4.687-2.145 4.687-5.505.035-3.36-1.181-5.433-4.687-5.433zm-10.84-1.537c1.324 0 2.003.536 2.003 1.787 0 1.323-.572 2.038-1.931 2.038h-2.97V17.55h2.898zm.107 6.04c1.145 0 2.218.394 2.218 1.895s-.787 2.002-2.146 2.002h-3.041V23.59h2.969zm-5.438-8.292v14.476h5.581c2.791 0 4.58-1.18 4.58-4.074 0-1.966-.68-2.824-2.004-3.36 1.145-.644 1.682-1.501 1.682-3.396 0-2.61-1.753-3.646-4.401-3.646h-5.438z" fill="#FE0116"/></g><defs><clipPath id="clip0_471_3318"><path fill="#fff" d="M0 0h166v44H0z"/></clipPath></defs></svg>