<svg width="151" height="40" fill="none" xmlns="http://www.w3.org/2000/svg"><g clip-path="url(#clip0_471_3163)"><path d="M0 4.744h35.256v14.102l-3.542 3.542 3.542 3.51V40H0V4.744z" fill="#FE0116"/><path d="M12.477 4.744h11.016c0 1.625.162 3.217.52 4.744H12.9c-.293-1.527-.423-3.12-.423-4.744z" fill="#9C000D"/><path fill-rule="evenodd" clip-rule="evenodd" d="M28.205 18.846H14.102v7.052h14.102v7.05H7.053V11.797h21.152v7.05z" fill="#FEFEFE"/><path d="M12.477 4.744c0-1.625.13-3.184.423-4.744h11.113c-.325 1.56-.52 3.152-.52 4.744H12.477zm108.79 14.752v-1.95H118.7v-2.729h-2.177v2.73h-1.202v1.95h1.202v4.224c0 2.73.683 3.574 2.86 3.574.682 0 1.949-.26 1.949-.26l-.097-1.852s-1.007.065-1.527.065c-.943 0-.975-.488-.975-1.82v-3.932h2.534zm-12.965 7.572V19.82s1.3-.422 2.145-.422c1.332 0 1.56.942 1.56 2.73v4.938h2.177v-4.971c0-3.184-.683-4.744-3.315-4.744-1.04 0-2.534.715-2.534.715v-.488h-2.177v9.488h2.144zm-6.596-11.016h2.177v-2.307h-2.177v2.307zm0 11.015h2.177v-9.52h-2.177v9.52zm-4.55-4.224v2.177s-1.364.39-2.371.39c-.618 0-.975-.422-.975-1.235 0-.78.422-1.137 1.267-1.202l2.08-.13zm2.178-2.274c0-2.34-1.137-3.217-3.25-3.217-1.397 0-3.866.422-3.866.422l.065 1.852s2.274-.162 3.672-.162c.714 0 1.17.39 1.17 1.137v.585l-2.373.195c-2.047.163-3.184.845-3.184 2.892 0 1.885.942 3.054 2.762 3.054 1.462 0 3.087-.682 3.087-.682.585.422 1.072.682 2.534.682l.065-1.852c-.552-.097-.747-.292-.78-.942v-3.964h.098zm-11.6 6.498h2.177V13.615h-2.177v13.452zm-5.72-7.733c1.138 0 1.853.715 1.853 2.86 0 2.274-.488 3.086-2.21 3.086-.617 0-1.527-.13-1.624-.13v-5.329s1.137-.487 1.982-.487zm-4.126 11.795h2.177V27.1c.097.032.975.162 1.755.162 2.924 0 4.256-1.104 4.256-5.069 0-3.574-1.17-4.874-3.639-4.874-1.072 0-2.372.748-2.372.748v-.52h-2.177v13.582zm-13.583-4.062v-7.246s1.138-.422 1.983-.422c1.364 0 1.56.78 1.56 2.794V27.1h2.176v-4.972c0-.877-.065-2.144-.13-2.274.033-.033 1.138-.488 2.08-.488 1.527 0 1.56 1.008 1.56 3.575v4.127h2.177v-4.972c0-3.347-.715-4.744-3.314-4.744-1.138 0-2.47.487-3.315.812-.487-.487-1.17-.747-2.144-.812-.293 0-.65.065-.975.13-.845.162-1.657.585-1.657.585v-.52H62.16v9.488h2.144v.032zm-8.123-1.754c-1.69 0-2.08-.975-2.08-3.055 0-2.047.455-2.957 2.08-2.957 1.527 0 2.047.943 2.047 2.957 0 2.015-.357 3.055-2.047 3.055zm0-7.961c-3.217 0-4.29 1.884-4.29 4.939 0 3.087 1.008 5.004 4.29 5.004s4.257-1.95 4.257-5.004c0-3.055-1.105-4.94-4.257-4.94zm-5.329 7.44s-2.275.293-3.282.293c-2.502 0-2.957-1.234-2.957-4.581 0-3.51.585-4.614 2.892-4.614 1.137 0 3.38.292 3.38.292l.064-1.95s-2.08-.52-3.736-.52c-3.737 0-4.907 2.015-4.907 6.824 0 4.484.91 6.791 4.907 6.791 1.494 0 3.736-.487 3.736-.487l-.097-2.047z" fill="#fff"/><path d="M142.518 17.547l2.697 4.776-2.697 4.744h2.307l1.787-3.184 1.82 3.184h2.307l-2.729-4.744 2.762-4.776h-2.308l-1.819 3.217-1.787-3.217h-2.34zm-4.841 7.766c-1.69 0-2.08-.975-2.08-3.055 0-2.047.455-2.956 2.08-2.956 1.527 0 2.047.942 2.047 2.956.032 2.015-.358 3.055-2.047 3.055zm0-7.961c-3.217 0-4.29 1.884-4.29 4.939 0 3.087 1.008 5.004 4.29 5.004 3.281 0 4.256-1.95 4.256-5.004.033-3.055-1.072-4.94-4.256-4.94zm-9.846-1.397c1.202 0 1.82.487 1.82 1.624 0 1.203-.52 1.852-1.755 1.852h-2.697v-3.476h2.632zm.097 5.491c1.04 0 2.015.357 2.015 1.722s-.715 1.82-1.95 1.82h-2.762v-3.542h2.697zm-4.939-7.539v13.16h5.069c2.535 0 4.16-1.072 4.16-3.704 0-1.787-.618-2.567-1.82-3.054 1.04-.585 1.527-1.365 1.527-3.087 0-2.372-1.592-3.315-3.997-3.315h-4.939z" fill="#FE0116"/></g><defs><clipPath id="clip0_471_3163"><path fill="#fff" d="M0 0h150.772v40H0z"/></clipPath></defs></svg>