<svg width="16" height="16" fill="none" xmlns="http://www.w3.org/2000/svg"><g opacity=".4" clip-path="url(#clip0_471_3296)"><path d="M14.492 10.943A3.516 3.516 0 0111 14c-4.962 0-9-4.037-9-9a3.516 3.516 0 013.058-3.492 1 1 0 011.038.595l1.32 2.946v.008a1 1 0 01-.115.991L6 7.591c.468.951 1.463 1.937 2.427 2.407l1.521-1.295a1 1 0 01.995-.122l.008.003 2.945 1.32a1 1 0 01.596 1.039z" fill="#05060E"/></g><defs><clipPath id="clip0_471_3296"><path fill="#fff" d="M0 0h16v16H0z"/></clipPath></defs></svg>