<svg width="20" height="20" fill="none" xmlns="http://www.w3.org/2000/svg"><g clip-path="url(#clip0_471_3244)"><path d="M15.625 2.5h-1.25v-.625a.625.625 0 10-1.25 0V2.5h-2.5v-.625a.625.625 0 10-1.25 0V2.5h-2.5v-.625a.625.625 0 00-1.25 0V2.5h-1.25a1.25 1.25 0 00-1.25 1.25v11.875a2.5 2.5 0 002.5 2.5h8.75a2.5 2.5 0 002.5-2.5V3.75a1.25 1.25 0 00-1.25-1.25zM12.5 13.125h-5a.625.625 0 110-1.25h5a.624.624 0 110 1.25zm0-2.5h-5a.625.625 0 110-1.25h5a.625.625 0 110 1.25z" fill="#A3A3A3"/></g><defs><clipPath id="clip0_471_3244"><path fill="#fff" d="M0 0h20v20H0z"/></clipPath></defs></svg>