<svg width="24" height="24" fill="none" xmlns="http://www.w3.org/2000/svg"><g clip-path="url(#clip0_471_2656)"><path d="M12.375 2.25A9.385 9.385 0 003 11.625v7.906A1.471 1.471 0 004.47 21h7.905a9.375 9.375 0 100-18.75zM8.25 13.125a1.125 1.125 0 110-2.25 1.125 1.125 0 010 2.25zm4.125 0a1.125 1.125 0 110-2.25 1.125 1.125 0 010 2.25zm4.125 0a1.125 1.125 0 110-2.25 1.125 1.125 0 010 2.25z" fill="#A3A3A3"/></g><defs><clipPath id="clip0_471_2656"><path fill="#fff" d="M0 0h24v24H0z"/></clipPath></defs></svg>