<svg width="20" height="20" fill="none" xmlns="http://www.w3.org/2000/svg"><g clip-path="url(#clip0_471_2864)"><path d="M5.01 11.547a.313.313 0 01-.313.328H1.25a.625.625 0 01-.61-.482.653.653 0 01.127-.541A5.296 5.296 0 012.891 9.18a3.125 3.125 0 115.192-2.796.308.308 0 01-.178.326 5.006 5.006 0 00-2.896 4.837zm14.218-.696a5.294 5.294 0 00-2.119-1.67 3.126 3.126 0 10-5.192-2.797.308.308 0 00.178.326A5.006 5.006 0 0115 11.25c0 .1 0 .198-.01.297a.312.312 0 00.313.328h3.447a.625.625 0 00.61-.482.65.65 0 00-.128-.542h-.004zm-6.953 3.373a3.75 3.75 0 10-4.56 0 5.635 5.635 0 00-2.631 2.338.625.625 0 00.541.938h8.75a.625.625 0 00.541-.938 5.637 5.637 0 00-2.636-2.338h-.005z" fill="#A3A3A3"/></g><defs><clipPath id="clip0_471_2864"><path fill="#fff" d="M0 0h20v20H0z"/></clipPath></defs></svg>