<svg width="24" height="24" fill="none" xmlns="http://www.w3.org/2000/svg"><g clip-path="url(#clip0_471_2843)"><path d="M11.227 20.432a.75.75 0 01-.915.546l-3-.75a.75.75 0 01-.234-.105l-2.25-1.5a.75.75 0 11.833-1.247l2.14 1.427 2.875.72a.75.75 0 01.551.909zm12.44-9.043a1.49 1.49 0 01-.75.867l-2.22 1.11-1.413 1.415-3.75 3.75a.75.75 0 01-.713.197l-6-1.5a.756.756 0 01-.254-.118l-5.205-3.716-2.276-1.138a1.5 1.5 0 01-.672-2.012l2.33-4.658a1.5 1.5 0 012.012-.672l2.068 1.032 4.969-1.42a.75.75 0 01.412 0l4.97 1.42 2.067-1.032a1.5 1.5 0 012.012.672l2.33 4.658a1.494 1.494 0 01.083 1.145zm-6.042 2.923l-2.598-2.08c-1.832 1.5-4.158 1.697-6.085.468a1.5 1.5 0 01-.248-2.334l4.206-4.08-.9-.256-4.727 1.35-2.566 5.132 4.613 3.295 5.45 1.362 2.855-2.857zm1.71-1.71L16.787 7.5h-2.983L9.75 11.438c1.187.758 3.048.967 4.717-.716a.75.75 0 011.002-.057l3.226 2.585.64-.648z" fill="#A3A3A3"/></g><defs><clipPath id="clip0_471_2843"><path fill="#fff" d="M0 0h24v24H0z"/></clipPath></defs></svg>