<svg width="20" height="20" fill="none" xmlns="http://www.w3.org/2000/svg"><g clip-path="url(#clip0_471_3235)"><path d="M11.875 8.75a.625.625 0 01-.625.625h-2.5a.625.625 0 010-1.25h2.5a.625.625 0 01.625.625zm6.25-3.125v10a1.25 1.25 0 01-1.25 1.25H3.125a1.25 1.25 0 01-1.25-1.25v-10a1.25 1.25 0 011.25-1.25H6.25V3.75a1.875 1.875 0 011.875-1.875h3.75A1.875 1.875 0 0113.75 3.75v.625h3.125a1.25 1.25 0 011.25 1.25zM7.5 4.375h5V3.75a.625.625 0 00-.625-.625h-3.75a.625.625 0 00-.625.625v.625zm9.375 4.5v-3.25H3.125v3.25a14.376 14.376 0 0013.75 0z" fill="#A3A3A3"/></g><defs><clipPath id="clip0_471_3235"><path fill="#fff" d="M0 0h20v20H0z"/></clipPath></defs></svg>