<svg width="24" height="24" fill="none" xmlns="http://www.w3.org/2000/svg"><g clip-path="url(#clip0_471_2670)"><path d="M12.008 5.38a3.376 3.376 0 015.173-2.609.374.374 0 01-.053.656 4.88 4.88 0 00-2.867 4.775.375.375 0 01-.562.353 3.376 3.376 0 01-1.69-3.176zM22.5 15.056a2.295 2.295 0 01-1.275 2.063l-.041.018-3.64 1.551a.653.653 0 01-.112.038l-6 1.5a.75.75 0 01-.182.023H1.5a1.5 1.5 0 01-1.5-1.5V15a1.5 1.5 0 011.5-1.5h2.69l2.12-2.122a2.984 2.984 0 012.122-.878h4.693a2.625 2.625 0 012.555 3.23l3.922-.902a2.308 2.308 0 012.898 2.23zm-1.5 0a.808.808 0 00-1.02-.778l-.028.008-6.281 1.444a.782.782 0 01-.168.019H10.5a.75.75 0 110-1.5h2.625a1.125 1.125 0 100-2.25H8.432a1.487 1.487 0 00-1.06.44L5.25 14.56v4.19h5.906l5.853-1.463 3.563-1.517a.803.803 0 00.428-.713zm-5.25-7.182a3.375 3.375 0 106.75 0 3.375 3.375 0 00-6.75 0z" fill="#A3A3A3"/></g><defs><clipPath id="clip0_471_2670"><path fill="#fff" d="M0 0h24v24H0z"/></clipPath></defs></svg>