<svg width="24" height="24" fill="none" xmlns="http://www.w3.org/2000/svg"><g clip-path="url(#clip0_471_2477)"><path d="M6.011 13.856a.375.375 0 01-.375.394H1.5a.75.75 0 01-.731-.579.783.783 0 01.152-.65 6.355 6.355 0 012.548-2.005 3.75 3.75 0 116.23-3.356.37.37 0 01-.212.392 6.008 6.008 0 00-3.476 5.804zm17.063-.835a6.353 6.353 0 00-2.543-2.005 3.751 3.751 0 10-6.23-3.356.37.37 0 00.212.392A6.008 6.008 0 0118 13.5c0 .12 0 .238-.011.356a.374.374 0 00.375.394H22.5a.75.75 0 00.731-.579.782.782 0 00-.153-.65h-.004zm-8.344 4.048a4.5 4.5 0 10-5.472 0A6.762 6.762 0 006.1 19.875.75.75 0 006.75 21h10.5a.75.75 0 00.65-1.125 6.764 6.764 0 00-3.163-2.806h-.007z" fill="#FE0116"/></g><defs><clipPath id="clip0_471_2477"><path fill="#fff" d="M0 0h24v24H0z"/></clipPath></defs></svg>