<svg width="16" height="16" fill="none" xmlns="http://www.w3.org/2000/svg"><g opacity=".4" clip-path="url(#clip0_471_3291)"><path d="M8 1.5A6.5 6.5 0 1014.5 8 6.507 6.507 0 008 1.5zm4.898 4h-2.214a8.9 8.9 0 00-1.266-2.813 5.523 5.523 0 013.48 2.813zM8 2.507c.75.812 1.313 1.847 1.648 2.993H6.352C6.687 4.354 7.25 3.32 8 2.507zM6 8c0-.503.042-1.004.125-1.5h3.75a9.11 9.11 0 010 3h-3.75A9.082 9.082 0 016 8zm.352 2.5h3.296C9.313 11.646 8.75 12.68 8 13.493c-.75-.814-1.313-1.847-1.648-2.993zm3.066 2.813a8.9 8.9 0 001.266-2.813h2.214a5.52 5.52 0 01-3.48 2.813zm1.47-3.813c.15-.994.15-2.006 0-3h2.404a5.51 5.51 0 010 3h-2.404z" fill="#05060E"/></g><defs><clipPath id="clip0_471_3291"><path fill="#fff" d="M0 0h16v16H0z"/></clipPath></defs></svg>